<?xml version="1.0" standalone="no"?>
<svg xmlns="http://www.w3.org/2000/svg" width="500" height="500"><defs><clipPath id="clip-path-dot-color"><circle cx="26" cy="138" r="7" transform="rotate(0,26,138)"/><circle cx="26" cy="208" r="7" transform="rotate(0,26,208)"/><circle cx="26" cy="222" r="7" transform="rotate(0,26,222)"/><circle cx="26" cy="264" r="7" transform="rotate(0,26,264)"/><circle cx="26" cy="292" r="7" transform="rotate(0,26,292)"/><circle cx="26" cy="320" r="7" transform="rotate(0,26,320)"/><circle cx="26" cy="334" r="7" transform="rotate(0,26,334)"/><circle cx="26" cy="348" r="7" transform="rotate(0,26,348)"/><circle cx="40" cy="152" r="7" transform="rotate(0,40,152)"/><circle cx="40" cy="166" r="7" transform="rotate(0,40,166)"/><circle cx="40" cy="194" r="7" transform="rotate(0,40,194)"/><circle cx="40" cy="208" r="7" transform="rotate(0,40,208)"/><circle cx="40" cy="250" r="7" transform="rotate(0,40,250)"/><circle cx="40" cy="278" r="7" transform="rotate(0,40,278)"/><circle cx="40" cy="306" r="7" transform="rotate(0,40,306)"/><circle cx="40" cy="348" r="7" transform="rotate(0,40,348)"/><circle cx="40" cy="362" r="7" transform="rotate(0,40,362)"/><circle cx="54" cy="138" r="7" transform="rotate(0,54,138)"/><circle cx="54" cy="152" r="7" transform="rotate(0,54,152)"/><circle cx="54" cy="222" r="7" transform="rotate(0,54,222)"/><circle cx="54" cy="236" r="7" transform="rotate(0,54,236)"/><circle cx="54" cy="264" r="7" transform="rotate(0,54,264)"/><circle cx="54" cy="278" r="7" transform="rotate(0,54,278)"/><circle cx="54" cy="334" r="7" transform="rotate(0,54,334)"/><circle cx="54" cy="348" r="7" transform="rotate(0,54,348)"/><circle cx="68" cy="138" r="7" transform="rotate(0,68,138)"/><circle cx="68" cy="152" r="7" transform="rotate(0,68,152)"/><circle cx="68" cy="166" r="7" transform="rotate(0,68,166)"/><circle cx="68" cy="180" r="7" transform="rotate(0,68,180)"/><circle cx="68" cy="222" r="7" transform="rotate(0,68,222)"/><circle cx="68" cy="250" r="7" transform="rotate(0,68,250)"/><circle cx="68" cy="278" r="7" transform="rotate(0,68,278)"/><circle cx="68" cy="292" r="7" transform="rotate(0,68,292)"/><circle cx="68" cy="334" r="7" transform="rotate(0,68,334)"/><circle cx="68" cy="348" r="7" transform="rotate(0,68,348)"/><circle cx="82" cy="166" r="7" transform="rotate(0,82,166)"/><circle cx="82" cy="180" r="7" transform="rotate(0,82,180)"/><circle cx="82" cy="194" r="7" transform="rotate(0,82,194)"/><circle cx="82" cy="278" r="7" transform="rotate(0,82,278)"/><circle cx="82" cy="334" r="7" transform="rotate(0,82,334)"/><circle cx="82" cy="348" r="7" transform="rotate(0,82,348)"/><circle cx="96" cy="138" r="7" transform="rotate(0,96,138)"/><circle cx="96" cy="152" r="7" transform="rotate(0,96,152)"/><circle cx="96" cy="166" r="7" transform="rotate(0,96,166)"/><circle cx="96" cy="180" r="7" transform="rotate(0,96,180)"/><circle cx="96" cy="222" r="7" transform="rotate(0,96,222)"/><circle cx="96" cy="250" r="7" transform="rotate(0,96,250)"/><circle cx="96" cy="264" r="7" transform="rotate(0,96,264)"/><circle cx="96" cy="292" r="7" transform="rotate(0,96,292)"/><circle cx="96" cy="362" r="7" transform="rotate(0,96,362)"/><circle cx="110" cy="138" r="7" transform="rotate(0,110,138)"/><circle cx="110" cy="166" r="7" transform="rotate(0,110,166)"/><circle cx="110" cy="194" r="7" transform="rotate(0,110,194)"/><circle cx="110" cy="222" r="7" transform="rotate(0,110,222)"/><circle cx="110" cy="250" r="7" transform="rotate(0,110,250)"/><circle cx="110" cy="278" r="7" transform="rotate(0,110,278)"/><circle cx="110" cy="306" r="7" transform="rotate(0,110,306)"/><circle cx="110" cy="334" r="7" transform="rotate(0,110,334)"/><circle cx="110" cy="362" r="7" transform="rotate(0,110,362)"/><circle cx="124" cy="138" r="7" transform="rotate(0,124,138)"/><circle cx="124" cy="166" r="7" transform="rotate(0,124,166)"/><circle cx="124" cy="236" r="7" transform="rotate(0,124,236)"/><circle cx="124" cy="264" r="7" transform="rotate(0,124,264)"/><circle cx="124" cy="278" r="7" transform="rotate(0,124,278)"/><circle cx="124" cy="320" r="7" transform="rotate(0,124,320)"/><circle cx="124" cy="334" r="7" transform="rotate(0,124,334)"/><circle cx="124" cy="348" r="7" transform="rotate(0,124,348)"/><circle cx="138" cy="40" r="7" transform="rotate(0,138,40)"/><circle cx="138" cy="68" r="7" transform="rotate(0,138,68)"/><circle cx="138" cy="96" r="7" transform="rotate(0,138,96)"/><circle cx="138" cy="110" r="7" transform="rotate(0,138,110)"/><circle cx="138" cy="124" r="7" transform="rotate(0,138,124)"/><circle cx="138" cy="138" r="7" transform="rotate(0,138,138)"/><circle cx="138" cy="152" r="7" transform="rotate(0,138,152)"/><circle cx="138" cy="180" r="7" transform="rotate(0,138,180)"/><circle cx="138" cy="194" r="7" transform="rotate(0,138,194)"/><circle cx="138" cy="222" r="7" transform="rotate(0,138,222)"/><circle cx="138" cy="292" r="7" transform="rotate(0,138,292)"/><circle cx="138" cy="320" r="7" transform="rotate(0,138,320)"/><circle cx="138" cy="334" r="7" transform="rotate(0,138,334)"/><circle cx="138" cy="376" r="7" transform="rotate(0,138,376)"/><circle cx="138" cy="390" r="7" transform="rotate(0,138,390)"/><circle cx="138" cy="404" r="7" transform="rotate(0,138,404)"/><circle cx="138" cy="432" r="7" transform="rotate(0,138,432)"/><circle cx="138" cy="446" r="7" transform="rotate(0,138,446)"/><circle cx="138" cy="474" r="7" transform="rotate(0,138,474)"/><circle cx="152" cy="166" r="7" transform="rotate(0,152,166)"/><circle cx="152" cy="180" r="7" transform="rotate(0,152,180)"/><circle cx="152" cy="194" r="7" transform="rotate(0,152,194)"/><circle cx="152" cy="222" r="7" transform="rotate(0,152,222)"/><circle cx="152" cy="236" r="7" transform="rotate(0,152,236)"/><circle cx="152" cy="264" r="7" transform="rotate(0,152,264)"/><circle cx="152" cy="306" r="7" transform="rotate(0,152,306)"/><circle cx="152" cy="320" r="7" transform="rotate(0,152,320)"/><circle cx="152" cy="362" r="7" transform="rotate(0,152,362)"/><circle cx="152" cy="376" r="7" transform="rotate(0,152,376)"/><circle cx="152" cy="390" r="7" transform="rotate(0,152,390)"/><circle cx="152" cy="404" r="7" transform="rotate(0,152,404)"/><circle cx="152" cy="460" r="7" transform="rotate(0,152,460)"/><circle cx="152" cy="474" r="7" transform="rotate(0,152,474)"/><circle cx="166" cy="54" r="7" transform="rotate(0,166,54)"/><circle cx="166" cy="110" r="7" transform="rotate(0,166,110)"/><circle cx="166" cy="166" r="7" transform="rotate(0,166,166)"/><circle cx="166" cy="222" r="7" transform="rotate(0,166,222)"/><circle cx="166" cy="236" r="7" transform="rotate(0,166,236)"/><circle cx="166" cy="250" r="7" transform="rotate(0,166,250)"/><circle cx="166" cy="264" r="7" transform="rotate(0,166,264)"/><circle cx="166" cy="292" r="7" transform="rotate(0,166,292)"/><circle cx="166" cy="306" r="7" transform="rotate(0,166,306)"/><circle cx="166" cy="334" r="7" transform="rotate(0,166,334)"/><circle cx="166" cy="362" r="7" transform="rotate(0,166,362)"/><circle cx="166" cy="376" r="7" transform="rotate(0,166,376)"/><circle cx="166" cy="404" r="7" transform="rotate(0,166,404)"/><circle cx="166" cy="418" r="7" transform="rotate(0,166,418)"/><circle cx="166" cy="446" r="7" transform="rotate(0,166,446)"/><circle cx="166" cy="474" r="7" transform="rotate(0,166,474)"/><circle cx="180" cy="40" r="7" transform="rotate(0,180,40)"/><circle cx="180" cy="54" r="7" transform="rotate(0,180,54)"/><circle cx="180" cy="68" r="7" transform="rotate(0,180,68)"/><circle cx="180" cy="82" r="7" transform="rotate(0,180,82)"/><circle cx="180" cy="96" r="7" transform="rotate(0,180,96)"/><circle cx="180" cy="152" r="7" transform="rotate(0,180,152)"/><circle cx="180" cy="166" r="7" transform="rotate(0,180,166)"/><circle cx="180" cy="180" r="7" transform="rotate(0,180,180)"/><circle cx="180" cy="208" r="7" transform="rotate(0,180,208)"/><circle cx="180" cy="236" r="7" transform="rotate(0,180,236)"/><circle cx="180" cy="250" r="7" transform="rotate(0,180,250)"/><circle cx="180" cy="278" r="7" transform="rotate(0,180,278)"/><circle cx="180" cy="306" r="7" transform="rotate(0,180,306)"/><circle cx="180" cy="320" r="7" transform="rotate(0,180,320)"/><circle cx="180" cy="376" r="7" transform="rotate(0,180,376)"/><circle cx="180" cy="418" r="7" transform="rotate(0,180,418)"/><circle cx="180" cy="432" r="7" transform="rotate(0,180,432)"/><circle cx="180" cy="460" r="7" transform="rotate(0,180,460)"/><circle cx="180" cy="474" r="7" transform="rotate(0,180,474)"/><circle cx="194" cy="26" r="7" transform="rotate(0,194,26)"/><circle cx="194" cy="54" r="7" transform="rotate(0,194,54)"/><circle cx="194" cy="110" r="7" transform="rotate(0,194,110)"/><circle cx="194" cy="124" r="7" transform="rotate(0,194,124)"/><circle cx="194" cy="138" r="7" transform="rotate(0,194,138)"/><circle cx="194" cy="152" r="7" transform="rotate(0,194,152)"/><circle cx="194" cy="208" r="7" transform="rotate(0,194,208)"/><circle cx="194" cy="278" r="7" transform="rotate(0,194,278)"/><circle cx="194" cy="306" r="7" transform="rotate(0,194,306)"/><circle cx="194" cy="320" r="7" transform="rotate(0,194,320)"/><circle cx="194" cy="348" r="7" transform="rotate(0,194,348)"/><circle cx="194" cy="362" r="7" transform="rotate(0,194,362)"/><circle cx="194" cy="376" r="7" transform="rotate(0,194,376)"/><circle cx="194" cy="390" r="7" transform="rotate(0,194,390)"/><circle cx="194" cy="404" r="7" transform="rotate(0,194,404)"/><circle cx="194" cy="432" r="7" transform="rotate(0,194,432)"/><circle cx="194" cy="460" r="7" transform="rotate(0,194,460)"/><circle cx="208" cy="82" r="7" transform="rotate(0,208,82)"/><circle cx="208" cy="96" r="7" transform="rotate(0,208,96)"/><circle cx="208" cy="124" r="7" transform="rotate(0,208,124)"/><circle cx="208" cy="152" r="7" transform="rotate(0,208,152)"/><circle cx="208" cy="194" r="7" transform="rotate(0,208,194)"/><circle cx="208" cy="208" r="7" transform="rotate(0,208,208)"/><circle cx="208" cy="222" r="7" transform="rotate(0,208,222)"/><circle cx="208" cy="236" r="7" transform="rotate(0,208,236)"/><circle cx="208" cy="292" r="7" transform="rotate(0,208,292)"/><circle cx="208" cy="306" r="7" transform="rotate(0,208,306)"/><circle cx="208" cy="334" r="7" transform="rotate(0,208,334)"/><circle cx="208" cy="362" r="7" transform="rotate(0,208,362)"/><circle cx="208" cy="390" r="7" transform="rotate(0,208,390)"/><circle cx="208" cy="418" r="7" transform="rotate(0,208,418)"/><circle cx="208" cy="446" r="7" transform="rotate(0,208,446)"/><circle cx="208" cy="460" r="7" transform="rotate(0,208,460)"/><circle cx="208" cy="474" r="7" transform="rotate(0,208,474)"/><circle cx="222" cy="26" r="7" transform="rotate(0,222,26)"/><circle cx="222" cy="40" r="7" transform="rotate(0,222,40)"/><circle cx="222" cy="68" r="7" transform="rotate(0,222,68)"/><circle cx="222" cy="82" r="7" transform="rotate(0,222,82)"/><circle cx="222" cy="96" r="7" transform="rotate(0,222,96)"/><circle cx="222" cy="110" r="7" transform="rotate(0,222,110)"/><circle cx="222" cy="138" r="7" transform="rotate(0,222,138)"/><circle cx="222" cy="166" r="7" transform="rotate(0,222,166)"/><circle cx="222" cy="208" r="7" transform="rotate(0,222,208)"/><circle cx="222" cy="236" r="7" transform="rotate(0,222,236)"/><circle cx="222" cy="250" r="7" transform="rotate(0,222,250)"/><circle cx="222" cy="320" r="7" transform="rotate(0,222,320)"/><circle cx="222" cy="348" r="7" transform="rotate(0,222,348)"/><circle cx="222" cy="376" r="7" transform="rotate(0,222,376)"/><circle cx="222" cy="390" r="7" transform="rotate(0,222,390)"/><circle cx="222" cy="404" r="7" transform="rotate(0,222,404)"/><circle cx="222" cy="418" r="7" transform="rotate(0,222,418)"/><circle cx="222" cy="432" r="7" transform="rotate(0,222,432)"/><circle cx="222" cy="460" r="7" transform="rotate(0,222,460)"/><circle cx="236" cy="26" r="7" transform="rotate(0,236,26)"/><circle cx="236" cy="124" r="7" transform="rotate(0,236,124)"/><circle cx="236" cy="138" r="7" transform="rotate(0,236,138)"/><circle cx="236" cy="152" r="7" transform="rotate(0,236,152)"/><circle cx="236" cy="194" r="7" transform="rotate(0,236,194)"/><circle cx="236" cy="236" r="7" transform="rotate(0,236,236)"/><circle cx="236" cy="264" r="7" transform="rotate(0,236,264)"/><circle cx="236" cy="306" r="7" transform="rotate(0,236,306)"/><circle cx="236" cy="320" r="7" transform="rotate(0,236,320)"/><circle cx="236" cy="362" r="7" transform="rotate(0,236,362)"/><circle cx="236" cy="390" r="7" transform="rotate(0,236,390)"/><circle cx="236" cy="460" r="7" transform="rotate(0,236,460)"/><circle cx="250" cy="40" r="7" transform="rotate(0,250,40)"/><circle cx="250" cy="68" r="7" transform="rotate(0,250,68)"/><circle cx="250" cy="96" r="7" transform="rotate(0,250,96)"/><circle cx="250" cy="110" r="7" transform="rotate(0,250,110)"/><circle cx="250" cy="138" r="7" transform="rotate(0,250,138)"/><circle cx="250" cy="152" r="7" transform="rotate(0,250,152)"/><circle cx="250" cy="180" r="7" transform="rotate(0,250,180)"/><circle cx="250" cy="208" r="7" transform="rotate(0,250,208)"/><circle cx="250" cy="236" r="7" transform="rotate(0,250,236)"/><circle cx="250" cy="278" r="7" transform="rotate(0,250,278)"/><circle cx="250" cy="320" r="7" transform="rotate(0,250,320)"/><circle cx="250" cy="334" r="7" transform="rotate(0,250,334)"/><circle cx="250" cy="348" r="7" transform="rotate(0,250,348)"/><circle cx="250" cy="362" r="7" transform="rotate(0,250,362)"/><circle cx="250" cy="390" r="7" transform="rotate(0,250,390)"/><circle cx="250" cy="418" r="7" transform="rotate(0,250,418)"/><circle cx="250" cy="460" r="7" transform="rotate(0,250,460)"/><circle cx="264" cy="26" r="7" transform="rotate(0,264,26)"/><circle cx="264" cy="68" r="7" transform="rotate(0,264,68)"/><circle cx="264" cy="82" r="7" transform="rotate(0,264,82)"/><circle cx="264" cy="96" r="7" transform="rotate(0,264,96)"/><circle cx="264" cy="152" r="7" transform="rotate(0,264,152)"/><circle cx="264" cy="180" r="7" transform="rotate(0,264,180)"/><circle cx="264" cy="208" r="7" transform="rotate(0,264,208)"/><circle cx="264" cy="222" r="7" transform="rotate(0,264,222)"/><circle cx="264" cy="348" r="7" transform="rotate(0,264,348)"/><circle cx="264" cy="362" r="7" transform="rotate(0,264,362)"/><circle cx="264" cy="376" r="7" transform="rotate(0,264,376)"/><circle cx="264" cy="404" r="7" transform="rotate(0,264,404)"/><circle cx="264" cy="432" r="7" transform="rotate(0,264,432)"/><circle cx="264" cy="460" r="7" transform="rotate(0,264,460)"/><circle cx="278" cy="26" r="7" transform="rotate(0,278,26)"/><circle cx="278" cy="54" r="7" transform="rotate(0,278,54)"/><circle cx="278" cy="82" r="7" transform="rotate(0,278,82)"/><circle cx="278" cy="110" r="7" transform="rotate(0,278,110)"/><circle cx="278" cy="124" r="7" transform="rotate(0,278,124)"/><circle cx="278" cy="152" r="7" transform="rotate(0,278,152)"/><circle cx="278" cy="166" r="7" transform="rotate(0,278,166)"/><circle cx="278" cy="180" r="7" transform="rotate(0,278,180)"/><circle cx="278" cy="194" r="7" transform="rotate(0,278,194)"/><circle cx="278" cy="222" r="7" transform="rotate(0,278,222)"/><circle cx="278" cy="362" r="7" transform="rotate(0,278,362)"/><circle cx="278" cy="446" r="7" transform="rotate(0,278,446)"/><circle cx="278" cy="460" r="7" transform="rotate(0,278,460)"/><circle cx="278" cy="474" r="7" transform="rotate(0,278,474)"/><circle cx="292" cy="40" r="7" transform="rotate(0,292,40)"/><circle cx="292" cy="68" r="7" transform="rotate(0,292,68)"/><circle cx="292" cy="152" r="7" transform="rotate(0,292,152)"/><circle cx="292" cy="180" r="7" transform="rotate(0,292,180)"/><circle cx="292" cy="194" r="7" transform="rotate(0,292,194)"/><circle cx="292" cy="222" r="7" transform="rotate(0,292,222)"/><circle cx="292" cy="236" r="7" transform="rotate(0,292,236)"/><circle cx="292" cy="250" r="7" transform="rotate(0,292,250)"/><circle cx="292" cy="292" r="7" transform="rotate(0,292,292)"/><circle cx="292" cy="306" r="7" transform="rotate(0,292,306)"/><circle cx="292" cy="320" r="7" transform="rotate(0,292,320)"/><circle cx="292" cy="334" r="7" transform="rotate(0,292,334)"/><circle cx="292" cy="348" r="7" transform="rotate(0,292,348)"/><circle cx="292" cy="362" r="7" transform="rotate(0,292,362)"/><circle cx="292" cy="376" r="7" transform="rotate(0,292,376)"/><circle cx="292" cy="404" r="7" transform="rotate(0,292,404)"/><circle cx="292" cy="460" r="7" transform="rotate(0,292,460)"/><circle cx="306" cy="96" r="7" transform="rotate(0,306,96)"/><circle cx="306" cy="110" r="7" transform="rotate(0,306,110)"/><circle cx="306" cy="124" r="7" transform="rotate(0,306,124)"/><circle cx="306" cy="166" r="7" transform="rotate(0,306,166)"/><circle cx="306" cy="194" r="7" transform="rotate(0,306,194)"/><circle cx="306" cy="222" r="7" transform="rotate(0,306,222)"/><circle cx="306" cy="264" r="7" transform="rotate(0,306,264)"/><circle cx="306" cy="292" r="7" transform="rotate(0,306,292)"/><circle cx="306" cy="320" r="7" transform="rotate(0,306,320)"/><circle cx="306" cy="348" r="7" transform="rotate(0,306,348)"/><circle cx="306" cy="362" r="7" transform="rotate(0,306,362)"/><circle cx="306" cy="404" r="7" transform="rotate(0,306,404)"/><circle cx="306" cy="460" r="7" transform="rotate(0,306,460)"/><circle cx="320" cy="40" r="7" transform="rotate(0,320,40)"/><circle cx="320" cy="68" r="7" transform="rotate(0,320,68)"/><circle cx="320" cy="138" r="7" transform="rotate(0,320,138)"/><circle cx="320" cy="194" r="7" transform="rotate(0,320,194)"/><circle cx="320" cy="222" r="7" transform="rotate(0,320,222)"/><circle cx="320" cy="236" r="7" transform="rotate(0,320,236)"/><circle cx="320" cy="264" r="7" transform="rotate(0,320,264)"/><circle cx="320" cy="278" r="7" transform="rotate(0,320,278)"/><circle cx="320" cy="306" r="7" transform="rotate(0,320,306)"/><circle cx="320" cy="320" r="7" transform="rotate(0,320,320)"/><circle cx="320" cy="362" r="7" transform="rotate(0,320,362)"/><circle cx="320" cy="376" r="7" transform="rotate(0,320,376)"/><circle cx="320" cy="390" r="7" transform="rotate(0,320,390)"/><circle cx="320" cy="446" r="7" transform="rotate(0,320,446)"/><circle cx="320" cy="460" r="7" transform="rotate(0,320,460)"/><circle cx="320" cy="474" r="7" transform="rotate(0,320,474)"/><circle cx="334" cy="26" r="7" transform="rotate(0,334,26)"/><circle cx="334" cy="40" r="7" transform="rotate(0,334,40)"/><circle cx="334" cy="54" r="7" transform="rotate(0,334,54)"/><circle cx="334" cy="68" r="7" transform="rotate(0,334,68)"/><circle cx="334" cy="82" r="7" transform="rotate(0,334,82)"/><circle cx="334" cy="96" r="7" transform="rotate(0,334,96)"/><circle cx="334" cy="110" r="7" transform="rotate(0,334,110)"/><circle cx="334" cy="124" r="7" transform="rotate(0,334,124)"/><circle cx="334" cy="152" r="7" transform="rotate(0,334,152)"/><circle cx="334" cy="194" r="7" transform="rotate(0,334,194)"/><circle cx="334" cy="208" r="7" transform="rotate(0,334,208)"/><circle cx="334" cy="264" r="7" transform="rotate(0,334,264)"/><circle cx="334" cy="278" r="7" transform="rotate(0,334,278)"/><circle cx="334" cy="292" r="7" transform="rotate(0,334,292)"/><circle cx="334" cy="306" r="7" transform="rotate(0,334,306)"/><circle cx="334" cy="320" r="7" transform="rotate(0,334,320)"/><circle cx="334" cy="362" r="7" transform="rotate(0,334,362)"/><circle cx="334" cy="390" r="7" transform="rotate(0,334,390)"/><circle cx="334" cy="404" r="7" transform="rotate(0,334,404)"/><circle cx="334" cy="418" r="7" transform="rotate(0,334,418)"/><circle cx="334" cy="432" r="7" transform="rotate(0,334,432)"/><circle cx="334" cy="474" r="7" transform="rotate(0,334,474)"/><circle cx="348" cy="40" r="7" transform="rotate(0,348,40)"/><circle cx="348" cy="68" r="7" transform="rotate(0,348,68)"/><circle cx="348" cy="96" r="7" transform="rotate(0,348,96)"/><circle cx="348" cy="152" r="7" transform="rotate(0,348,152)"/><circle cx="348" cy="194" r="7" transform="rotate(0,348,194)"/><circle cx="348" cy="208" r="7" transform="rotate(0,348,208)"/><circle cx="348" cy="222" r="7" transform="rotate(0,348,222)"/><circle cx="348" cy="250" r="7" transform="rotate(0,348,250)"/><circle cx="348" cy="264" r="7" transform="rotate(0,348,264)"/><circle cx="348" cy="306" r="7" transform="rotate(0,348,306)"/><circle cx="348" cy="320" r="7" transform="rotate(0,348,320)"/><circle cx="348" cy="334" r="7" transform="rotate(0,348,334)"/><circle cx="348" cy="348" r="7" transform="rotate(0,348,348)"/><circle cx="348" cy="418" r="7" transform="rotate(0,348,418)"/><circle cx="348" cy="432" r="7" transform="rotate(0,348,432)"/><circle cx="348" cy="460" r="7" transform="rotate(0,348,460)"/><circle cx="362" cy="26" r="7" transform="rotate(0,362,26)"/><circle cx="362" cy="68" r="7" transform="rotate(0,362,68)"/><circle cx="362" cy="82" r="7" transform="rotate(0,362,82)"/><circle cx="362" cy="110" r="7" transform="rotate(0,362,110)"/><circle cx="362" cy="124" r="7" transform="rotate(0,362,124)"/><circle cx="362" cy="208" r="7" transform="rotate(0,362,208)"/><circle cx="362" cy="250" r="7" transform="rotate(0,362,250)"/><circle cx="362" cy="278" r="7" transform="rotate(0,362,278)"/><circle cx="362" cy="306" r="7" transform="rotate(0,362,306)"/><circle cx="362" cy="320" r="7" transform="rotate(0,362,320)"/><circle cx="362" cy="348" r="7" transform="rotate(0,362,348)"/><circle cx="362" cy="362" r="7" transform="rotate(0,362,362)"/><circle cx="362" cy="376" r="7" transform="rotate(0,362,376)"/><circle cx="362" cy="390" r="7" transform="rotate(0,362,390)"/><circle cx="362" cy="404" r="7" transform="rotate(0,362,404)"/><circle cx="362" cy="418" r="7" transform="rotate(0,362,418)"/><circle cx="362" cy="432" r="7" transform="rotate(0,362,432)"/><circle cx="362" cy="460" r="7" transform="rotate(0,362,460)"/><circle cx="376" cy="138" r="7" transform="rotate(0,376,138)"/><circle cx="376" cy="166" r="7" transform="rotate(0,376,166)"/><circle cx="376" cy="180" r="7" transform="rotate(0,376,180)"/><circle cx="376" cy="250" r="7" transform="rotate(0,376,250)"/><circle cx="376" cy="292" r="7" transform="rotate(0,376,292)"/><circle cx="376" cy="320" r="7" transform="rotate(0,376,320)"/><circle cx="376" cy="334" r="7" transform="rotate(0,376,334)"/><circle cx="376" cy="362" r="7" transform="rotate(0,376,362)"/><circle cx="376" cy="418" r="7" transform="rotate(0,376,418)"/><circle cx="376" cy="432" r="7" transform="rotate(0,376,432)"/><circle cx="376" cy="460" r="7" transform="rotate(0,376,460)"/><circle cx="376" cy="474" r="7" transform="rotate(0,376,474)"/><circle cx="390" cy="138" r="7" transform="rotate(0,390,138)"/><circle cx="390" cy="152" r="7" transform="rotate(0,390,152)"/><circle cx="390" cy="180" r="7" transform="rotate(0,390,180)"/><circle cx="390" cy="306" r="7" transform="rotate(0,390,306)"/><circle cx="390" cy="362" r="7" transform="rotate(0,390,362)"/><circle cx="390" cy="390" r="7" transform="rotate(0,390,390)"/><circle cx="390" cy="418" r="7" transform="rotate(0,390,418)"/><circle cx="390" cy="432" r="7" transform="rotate(0,390,432)"/><circle cx="390" cy="446" r="7" transform="rotate(0,390,446)"/><circle cx="390" cy="460" r="7" transform="rotate(0,390,460)"/><circle cx="404" cy="138" r="7" transform="rotate(0,404,138)"/><circle cx="404" cy="166" r="7" transform="rotate(0,404,166)"/><circle cx="404" cy="194" r="7" transform="rotate(0,404,194)"/><circle cx="404" cy="208" r="7" transform="rotate(0,404,208)"/><circle cx="404" cy="222" r="7" transform="rotate(0,404,222)"/><circle cx="404" cy="264" r="7" transform="rotate(0,404,264)"/><circle cx="404" cy="278" r="7" transform="rotate(0,404,278)"/><circle cx="404" cy="292" r="7" transform="rotate(0,404,292)"/><circle cx="404" cy="306" r="7" transform="rotate(0,404,306)"/><circle cx="404" cy="320" r="7" transform="rotate(0,404,320)"/><circle cx="404" cy="334" r="7" transform="rotate(0,404,334)"/><circle cx="404" cy="362" r="7" transform="rotate(0,404,362)"/><circle cx="404" cy="418" r="7" transform="rotate(0,404,418)"/><circle cx="404" cy="474" r="7" transform="rotate(0,404,474)"/><circle cx="418" cy="152" r="7" transform="rotate(0,418,152)"/><circle cx="418" cy="166" r="7" transform="rotate(0,418,166)"/><circle cx="418" cy="208" r="7" transform="rotate(0,418,208)"/><circle cx="418" cy="222" r="7" transform="rotate(0,418,222)"/><circle cx="418" cy="236" r="7" transform="rotate(0,418,236)"/><circle cx="418" cy="250" r="7" transform="rotate(0,418,250)"/><circle cx="418" cy="264" r="7" transform="rotate(0,418,264)"/><circle cx="418" cy="278" r="7" transform="rotate(0,418,278)"/><circle cx="418" cy="320" r="7" transform="rotate(0,418,320)"/><circle cx="418" cy="334" r="7" transform="rotate(0,418,334)"/><circle cx="418" cy="362" r="7" transform="rotate(0,418,362)"/><circle cx="418" cy="376" r="7" transform="rotate(0,418,376)"/><circle cx="418" cy="390" r="7" transform="rotate(0,418,390)"/><circle cx="418" cy="404" r="7" transform="rotate(0,418,404)"/><circle cx="418" cy="418" r="7" transform="rotate(0,418,418)"/><circle cx="418" cy="432" r="7" transform="rotate(0,418,432)"/><circle cx="432" cy="138" r="7" transform="rotate(0,432,138)"/><circle cx="432" cy="166" r="7" transform="rotate(0,432,166)"/><circle cx="432" cy="222" r="7" transform="rotate(0,432,222)"/><circle cx="432" cy="236" r="7" transform="rotate(0,432,236)"/><circle cx="432" cy="264" r="7" transform="rotate(0,432,264)"/><circle cx="432" cy="348" r="7" transform="rotate(0,432,348)"/><circle cx="432" cy="390" r="7" transform="rotate(0,432,390)"/><circle cx="432" cy="418" r="7" transform="rotate(0,432,418)"/><circle cx="432" cy="460" r="7" transform="rotate(0,432,460)"/><circle cx="446" cy="166" r="7" transform="rotate(0,446,166)"/><circle cx="446" cy="194" r="7" transform="rotate(0,446,194)"/><circle cx="446" cy="208" r="7" transform="rotate(0,446,208)"/><circle cx="446" cy="236" r="7" transform="rotate(0,446,236)"/><circle cx="446" cy="320" r="7" transform="rotate(0,446,320)"/><circle cx="446" cy="418" r="7" transform="rotate(0,446,418)"/><circle cx="446" cy="474" r="7" transform="rotate(0,446,474)"/><circle cx="460" cy="138" r="7" transform="rotate(0,460,138)"/><circle cx="460" cy="152" r="7" transform="rotate(0,460,152)"/><circle cx="460" cy="166" r="7" transform="rotate(0,460,166)"/><circle cx="460" cy="222" r="7" transform="rotate(0,460,222)"/><circle cx="460" cy="236" r="7" transform="rotate(0,460,236)"/><circle cx="460" cy="250" r="7" transform="rotate(0,460,250)"/><circle cx="460" cy="264" r="7" transform="rotate(0,460,264)"/><circle cx="460" cy="320" r="7" transform="rotate(0,460,320)"/><circle cx="460" cy="348" r="7" transform="rotate(0,460,348)"/><circle cx="460" cy="362" r="7" transform="rotate(0,460,362)"/><circle cx="460" cy="376" r="7" transform="rotate(0,460,376)"/><circle cx="460" cy="390" r="7" transform="rotate(0,460,390)"/><circle cx="474" cy="152" r="7" transform="rotate(0,474,152)"/><circle cx="474" cy="194" r="7" transform="rotate(0,474,194)"/><circle cx="474" cy="222" r="7" transform="rotate(0,474,222)"/><circle cx="474" cy="250" r="7" transform="rotate(0,474,250)"/><circle cx="474" cy="320" r="7" transform="rotate(0,474,320)"/><circle cx="474" cy="362" r="7" transform="rotate(0,474,362)"/><circle cx="474" cy="376" r="7" transform="rotate(0,474,376)"/><circle cx="474" cy="390" r="7" transform="rotate(0,474,390)"/><circle cx="474" cy="418" r="7" transform="rotate(0,474,418)"/><circle cx="474" cy="432" r="7" transform="rotate(0,474,432)"/><circle cx="474" cy="460" r="7" transform="rotate(0,474,460)"/></clipPath><clipPath id="clip-path-corners-square-color-0-0"><path clip-rule="evenodd" d="M 19 54v 28a 35 35, 0, 0, 0, 35 35h 28a 35 35, 0, 0, 0, 35 -35v -28a 35 35, 0, 0, 0, -35 -35h -28a 35 35, 0, 0, 0, -35 35M 54 33h 28a 21 21, 0, 0, 1, 21 21v 28a 21 21, 0, 0, 1, -21 21h -28a 21 21, 0, 0, 1, -21 -21v -28a 21 21, 0, 0, 1, 21 -21" transform="rotate(0,68,68)"/></clipPath><clipPath id="clip-path-corners-dot-color-0-0"><circle cx="68" cy="68" r="21" transform="rotate(0,68,68)"/></clipPath><clipPath id="clip-path-corners-square-color-1-0"><path clip-rule="evenodd" d="M 383 54v 28a 35 35, 0, 0, 0, 35 35h 28a 35 35, 0, 0, 0, 35 -35v -28a 35 35, 0, 0, 0, -35 -35h -28a 35 35, 0, 0, 0, -35 35M 418 33h 28a 21 21, 0, 0, 1, 21 21v 28a 21 21, 0, 0, 1, -21 21h -28a 21 21, 0, 0, 1, -21 -21v -28a 21 21, 0, 0, 1, 21 -21" transform="rotate(90,432,68)"/></clipPath><clipPath id="clip-path-corners-dot-color-1-0"><circle cx="432" cy="68" r="21" transform="rotate(90,432,68)"/></clipPath><clipPath id="clip-path-corners-square-color-0-1"><path clip-rule="evenodd" d="M 19 418v 28a 35 35, 0, 0, 0, 35 35h 28a 35 35, 0, 0, 0, 35 -35v -28a 35 35, 0, 0, 0, -35 -35h -28a 35 35, 0, 0, 0, -35 35M 54 397h 28a 21 21, 0, 0, 1, 21 21v 28a 21 21, 0, 0, 1, -21 21h -28a 21 21, 0, 0, 1, -21 -21v -28a 21 21, 0, 0, 1, 21 -21" transform="rotate(-90,68,432)"/></clipPath><clipPath id="clip-path-corners-dot-color-0-1"><circle cx="68" cy="432" r="21" transform="rotate(-90,68,432)"/></clipPath></defs><rect x="0" y="0" height="500" width="500" clip-path="url('#clip-path-background-color')" fill="#fff"/><rect x="0" y="0" height="500" width="500" clip-path="url('#clip-path-dot-color')" fill="#D75827"/><rect x="19" y="19" height="98" width="98" clip-path="url('#clip-path-corners-square-color-0-0')" fill="#D75827"/><rect x="47" y="47" height="42" width="42" clip-path="url('#clip-path-corners-dot-color-0-0')" fill="#D75827"/><rect x="383" y="19" height="98" width="98" clip-path="url('#clip-path-corners-square-color-1-0')" fill="#D75827"/><rect x="411" y="47" height="42" width="42" clip-path="url('#clip-path-corners-dot-color-1-0')" fill="#D75827"/><rect x="19" y="383" height="98" width="98" clip-path="url('#clip-path-corners-square-color-0-1')" fill="#D75827"/><rect x="47" y="411" height="42" width="42" clip-path="url('#clip-path-corners-dot-color-0-1')" fill="#D75827"/></svg>